{
    "asset" : {
        "generator" : "Khronos glTF Blender I/O v1.7.33",
        "version" : "2.0"
    },
    "scene" : 0,
    "scenes" : [
        {
            "name" : "Scene",
            "nodes" : [
                2
            ]
        }
    ],
    "nodes" : [
        {
            "mesh" : 0,
            "name" : "Object_4"
        },
        {
            "children" : [
                0
            ],
            "name" : "tofab.obj.cleaner.materialmerger.gles"
        },
        {
            "children" : [
                1
            ],
            "name" : "Sketchfab_model",
            "rotation" : [
                -0.7071068286895752,
                0,
                0,
                0.7071068286895752
            ]
        }
    ],
    "materials" : [
        {
            "alphaMode" : "BLEND",
            "name" : "Scene_-_Root",
            "pbrMetallicRoughness" : {
                "baseColorFactor" : [
                    1,
                    1,
                    1,
                    0.75
                ],
                "metallicFactor" : 0,
                "roughnessFactor" : 0.6663491129875183
            }
        }
    ],
    "meshes" : [
        {
            "name" : "Object_2",
            "primitives" : [
                {
                    "attributes" : {
                        "POSITION" : 0,
                        "NORMAL" : 1
                    },
                    "indices" : 2,
                    "material" : 0
                }
            ]
        }
    ],
    "accessors" : [
        {
            "bufferView" : 0,
            "componentType" : 5126,
            "count" : 177147,
            "max" : [
                0.35059699416160583,
                0.19503900408744812,
                1.7953089475631714
            ],
            "min" : [
                -0.35059699416160583,
                -0.1409049928188324,
                -0.009971999563276768
            ],
            "type" : "VEC3"
        },
        {
            "bufferView" : 1,
            "componentType" : 5126,
            "count" : 177147,
            "type" : "VEC3"
        },
        {
            "bufferView" : 2,
            "componentType" : 5125,
            "count" : 912636,
            "type" : "SCALAR"
        }
    ],
    "bufferViews" : [
        {
            "buffer" : 0,
            "byteLength" : 2125764,
            "byteOffset" : 0
        },
        {
            "buffer" : 0,
            "byteLength" : 2125764,
            "byteOffset" : 2125764
        },
        {
            "buffer" : 0,
            "byteLength" : 3650544,
            "byteOffset" : 4251528
        }
    ],
    "buffers" : [
        {
            "byteLength" : 7902072,
            "uri" : "transMan.bin"
        }
    ]
}
